<svg width="122" height="38" viewBox="0 0 122 38" fill="none" xmlns="http://www.w3.org/2000/svg">
<g filter="url(#filter0_d_1_11463)">
<rect x="4.00061" y="14" width="32" height="1.54334" rx="0.771672" fill="#E3B873"/>
<rect x="86.0006" y="14" width="32" height="1.54334" rx="0.771672" fill="#E3B873"/>
<path d="M66.4261 9.56018L61.5806 8.10643C61.2169 7.99791 60.843 7.9597 60.4726 7.97323V7.96076H54.5833L44.1396 4.49023L44.1712 19.1652L47.1692 20.6637L48.9443 16.3243L51.5373 17.3617L52.2097 15.6814L53.1835 16.6551L52.275 17.5639C51.9592 17.8796 51.7783 18.3164 51.7783 18.7632C51.7783 19.6775 52.5074 20.421 53.4143 20.4531C53.4459 21.3393 54.1583 22.0517 55.0445 22.0833C55.0761 22.9695 55.7885 23.6819 56.6747 23.7135C56.7073 24.6204 57.4502 25.3495 58.3648 25.3495C58.8114 25.3495 59.2484 25.1685 59.5639 24.8528L60.4726 23.9443L60.8377 24.3094C61.1535 24.6251 61.5902 24.8061 62.037 24.8061C62.9516 24.8061 63.6948 24.077 63.7269 23.1701C64.6131 23.1385 65.3255 22.4261 65.3571 21.5399C66.2433 21.5083 66.9557 20.7959 66.9873 19.9097C67.8942 19.877 68.6236 19.1341 68.6236 18.2198C68.6236 18.1426 68.6111 18.0664 68.6008 17.9897L69.3806 17.2099L70.0107 18.4708L73.424 16.7639L75.4866 20.702L77.8613 19.1195V5.07476L66.4261 9.56018ZM46.6062 19.1673L45.257 18.4925L45.2296 5.99758L51.1842 7.97668L46.6062 19.1673ZM50.9321 15.9488L49.3553 15.3184L52.2179 8.32002L53.7757 8.83795L50.9321 15.9488ZM52.8651 18.7632C52.8651 18.6027 52.9295 18.4458 53.0431 18.332L53.9985 17.3768C54.1121 17.2633 54.2692 17.1985 54.4294 17.1985C54.7654 17.1985 55.0386 17.4721 55.0386 17.8077C55.0386 17.968 54.9739 18.1251 54.8603 18.2386L53.9052 19.1941C53.7916 19.3076 53.6345 19.3721 53.4743 19.3721C53.1383 19.3721 52.8651 19.0988 52.8651 18.7632ZM54.4952 20.3934C54.4952 20.2328 54.5597 20.076 54.6733 19.9622L55.6287 19.007C55.7423 18.8935 55.8994 18.8287 56.0596 18.8287C56.3955 18.8287 56.6688 19.1023 56.6688 19.4379C56.6688 19.5982 56.6041 19.7553 56.4905 19.8688L55.5353 20.8243C55.4218 20.9378 55.2647 21.0023 55.1044 21.0023C54.7685 21.0023 54.4952 20.729 54.4952 20.3934ZM56.1254 22.0236C56.1254 21.863 56.1899 21.7062 56.3035 21.5924L57.2589 20.6372C57.3725 20.5237 57.5296 20.4589 57.6898 20.4589C58.0257 20.4589 58.299 20.7325 58.299 21.0681C58.299 21.2284 58.2343 21.3854 58.1207 21.499L57.1655 22.4545C57.052 22.568 56.8949 22.6325 56.7346 22.6325C56.3987 22.6325 56.1254 22.3592 56.1254 22.0236ZM59.7509 23.1292L58.7957 24.0847C58.6822 24.1982 58.5251 24.2627 58.3648 24.2627C58.0289 24.2627 57.7556 23.9894 57.7556 23.6538C57.7556 23.4932 57.8201 23.3364 57.9337 23.2226L58.8891 22.2674C59.0027 22.1538 59.1598 22.0891 59.32 22.0891C59.6559 22.0891 59.9292 22.3627 59.9292 22.6983C59.9292 22.8586 59.8645 23.0156 59.7509 23.1292ZM66.9276 18.8287C66.7673 18.8287 66.6103 18.7642 66.4967 18.6507L61.9436 14.0973L61.1752 14.8657L65.7283 19.4188C65.8419 19.5326 65.9066 19.6895 65.9066 19.85C65.9066 20.1856 65.6333 20.4589 65.2974 20.4589C65.1371 20.4589 64.9801 20.3944 64.8665 20.2809L60.3134 15.7275L59.545 16.4959L64.0981 21.049C64.2117 21.1628 64.2764 21.3196 64.2764 21.4802C64.2764 21.8158 64.0031 22.0891 63.6672 22.0891C63.5069 22.0891 63.3499 22.0246 63.2363 21.9111L58.6832 17.3577L57.9148 18.1261L62.4679 22.6792C62.5815 22.793 62.6462 22.9498 62.6462 23.1104C62.6462 23.446 62.3729 23.7193 62.037 23.7193C61.8768 23.7193 61.7197 23.6548 61.6061 23.5413L60.9932 22.9281C61.0041 22.8522 61.016 22.776 61.016 22.6983C61.016 21.7837 60.2866 21.0405 59.3797 21.0084C59.3482 20.1222 58.6357 19.4098 57.7495 19.3782C57.718 18.492 57.0055 17.7796 56.1193 17.748C56.0867 16.8411 55.344 16.1117 54.4294 16.1117C54.3522 16.1117 54.2761 16.1242 54.1997 16.1345L52.6483 14.5832L54.863 9.04756H58.074L56.0787 11.0431C55.758 11.3631 55.582 11.7892 55.582 12.2424C55.582 13.1774 56.3427 13.9381 57.278 13.9381C57.7246 13.9381 58.1616 13.7572 58.4771 13.4414L59.9168 12.0015C60.2113 11.708 60.73 11.6966 61.0367 11.9776L62.3071 13.1421C62.7293 13.529 63.1984 13.8508 63.7004 14.1029L67.3585 17.7886C67.4721 17.9024 67.5368 18.0593 67.5368 18.2198C67.5368 18.5554 67.2635 18.8287 66.9276 18.8287ZM68.0802 16.9735L65.8466 14.723C66.0462 14.7418 66.2473 14.7532 66.45 14.7532V13.6664C65.1849 13.6664 63.9742 13.1955 63.0418 12.3406L61.7712 11.1766C61.054 10.518 59.8374 10.5443 59.1489 11.2336L57.7095 12.6733C57.5954 12.7863 57.4383 12.8513 57.278 12.8513C56.9421 12.8513 56.6688 12.5781 56.6688 12.2424C56.6688 12.0792 56.7317 11.9267 56.8469 11.8112L58.9183 9.74007C59.527 9.1314 60.441 8.89977 61.2681 9.14759L66.0685 10.5875L68.8674 16.1863L68.0802 16.9735ZM70.4966 17.0128L67.2019 10.423L69.6082 9.47899L72.9196 15.801L70.4966 17.0128ZM76.7746 18.5382L75.8886 19.1288L70.626 9.08019L76.7746 6.6686V18.5382Z" fill="#E3B873"/>
<circle cx="63.6667" cy="1.70141" r="0.485591" fill="#E3B873"/>
<circle cx="51.4099" cy="24.6306" r="0.485591" fill="#E3B873"/>
<circle cx="53.468" cy="26.3191" r="0.485591" fill="#E3B873"/>
<circle cx="55.8166" cy="27.5579" r="0.485591" fill="#E3B873"/>
<circle cx="58.3655" cy="28.3503" r="0.485591" fill="#E3B873"/>
<circle cx="66.2141" cy="2.47436" r="0.485591" fill="#E3B873"/>
<circle cx="68.5632" cy="3.72876" r="0.485591" fill="#E3B873"/>
<path d="M70.8305 3.02686V5.82855H67.9971" stroke="#E3B873" stroke-linecap="round" stroke-linejoin="round"/>
<path d="M49.0104 24.314L49.0104 22.0471L51.2744 22.0471" stroke="#E3B873" stroke-linecap="round" stroke-linejoin="round"/>
<path d="M51.8008 5.00987C53.3359 3.67406 54.3124 3.05949 56.1519 2.34124C58.1033 1.5793 59.4237 1.40038 61.5441 1.40039" stroke="#E3B873" stroke-linecap="round"/>
<path d="M72.4046 22.4984C71.2633 24.2786 69.1376 26.0167 67.4089 26.9712C65.575 27.9837 63.6102 28.5543 60.9931 28.6906" stroke="#E3B873" stroke-linecap="round"/>
</g>
<defs>
<filter id="filter0_d_1_11463" x="0.000610352" y="0.900391" width="122" height="36.2903" filterUnits="userSpaceOnUse" color-interpolation-filters="sRGB">
<feFlood flood-opacity="0" result="BackgroundImageFix"/>
<feColorMatrix in="SourceAlpha" type="matrix" values="0 0 0 0 0 0 0 0 0 0 0 0 0 0 0 0 0 0 127 0" result="hardAlpha"/>
<feOffset dy="4"/>
<feGaussianBlur stdDeviation="2"/>
<feComposite in2="hardAlpha" operator="out"/>
<feColorMatrix type="matrix" values="0 0 0 0 0 0 0 0 0 0 0 0 0 0 0 0 0 0 0.25 0"/>
<feBlend mode="normal" in2="BackgroundImageFix" result="effect1_dropShadow_1_11463"/>
<feBlend mode="normal" in="SourceGraphic" in2="effect1_dropShadow_1_11463" result="shape"/>
</filter>
</defs>
</svg>
